<?xml version="1.0" standalone="no"?>
<!DOCTYPE svg PUBLIC "-//W3C//DTD SVG 20010904//EN"
 "http://www.w3.org/TR/2001/REC-SVG-20010904/DTD/svg10.dtd">
<svg version="1.0" xmlns="http://www.w3.org/2000/svg"
 width="558.000000pt" height="558.000000pt" viewBox="0 0 558.000000 558.000000"
 preserveAspectRatio="xMidYMid meet">
<metadata>
Created by potrace 1.14, written by Peter Selinger 2001-2017
</metadata>
<g transform="translate(0.000000,558.000000) scale(0.100000,-0.100000)"
fill="#000000" stroke="none">
<path d="M356 4403 c21 -32 49 -77 63 -101 14 -23 107 -172 205 -329 98 -158
179 -294 180 -302 1 -20 -37 -19 -184 2 -131 20 -373 16 -441 -6 -101 -33
-152 -72 -120 -91 5 -3 37 7 72 23 88 40 227 53 371 36 89 -10 240 -35 249
-41 5 -2 -36 -71 -90 -152 -259 -389 -391 -658 -395 -803 -1 -44 4 -72 13 -83
22 -26 35 -4 32 53 -2 60 25 143 88 271 56 112 52 105 166 289 95 154 259 396
274 406 5 3 15 3 23 0 17 -7 78 -100 78 -120 0 -9 -25 -52 -55 -95 -30 -43
-55 -82 -55 -85 0 -4 -13 -26 -30 -49 -45 -66 -129 -228 -144 -280 -12 -40
-12 -48 -1 -52 20 -8 32 1 135 99 127 120 125 119 125 42 0 -143 83 -163 230
-56 l68 50 78 -126 c44 -69 79 -127 79 -129 0 -2 19 -32 43 -68 105 -159 177
-285 166 -292 -6 -3 -8 -12 -5 -19 3 -10 -6 -13 -35 -12 -30 1 -38 5 -34 17 4
12 3 12 -8 -1 -14 -18 -117 -22 -117 -4 0 6 -3 6 -8 -1 -5 -7 -201 -11 -659
-10 -359 0 -655 -3 -659 -6 -3 -4 -3 -11 0 -16 4 -6 278 -9 721 -8 393 0 715
-2 715 -5 0 -4 15 -4 33 0 17 3 51 4 74 1 38 -4 46 -11 73 -53 16 -26 30 -52
30 -57 0 -5 6 -15 13 -22 14 -15 49 -68 101 -153 20 -33 42 -69 49 -80 7 -11
20 -32 30 -47 10 -15 15 -33 11 -39 -4 -7 -3 -9 3 -6 6 4 36 -36 69 -91 32
-53 62 -101 67 -107 4 -5 38 -59 76 -120 38 -60 200 -320 360 -578 160 -257
294 -474 297 -482 4 -8 10 -15 14 -15 4 0 131 198 282 440 150 242 300 483
333 535 52 82 436 697 468 749 76 126 77 126 110 127 18 0 375 1 795 1 610 0
762 3 762 13 0 7 -6 15 -12 17 -7 2 -266 3 -576 3 -310 -1 -565 2 -568 7 -3 5
-11 5 -17 1 -15 -9 -387 -13 -387 -4 1 7 22 44 127 213 158 256 208 331 223
339 8 4 42 19 75 35 33 15 79 40 102 56 23 15 44 28 47 28 16 0 -45 -98 -64
-103 -29 -8 -22 -37 13 -57 28 -15 28 -15 85 48 57 62 81 76 83 47 2 -18 3
-21 19 -63 7 -18 25 -39 40 -47 51 -26 121 10 285 148 102 86 106 87 103 36
-3 -35 -8 -44 -33 -58 -143 -77 -202 -164 -153 -226 59 -76 191 20 228 166
l12 46 101 33 c109 35 210 78 242 103 16 12 17 18 7 30 -11 13 -19 11 -65 -13
-49 -27 -190 -79 -250 -94 -28 -7 -28 -7 -22 36 6 41 15 54 64 88 27 19 36 47
21 65 -27 32 -86 9 -119 -46 -10 -16 -46 -48 -81 -71 -35 -24 -74 -51 -88 -60
-14 -9 -28 -20 -31 -25 -3 -5 -28 -25 -56 -44 -27 -18 -52 -36 -55 -39 -13
-13 -52 -30 -70 -30 -20 0 -39 32 -54 93 -5 22 -3 27 13 27 11 0 43 5 71 12
119 27 154 139 43 138 -26 0 -90 -31 -156 -74 -46 -31 -29 -4 26 42 108 88
278 250 371 353 132 147 165 259 76 259 -62 0 -174 -105 -318 -296 -45 -60
-85 -113 -90 -119 -4 -5 -22 -32 -39 -60 -18 -27 -36 -54 -41 -60 -4 -5 -18
-27 -31 -47 -23 -38 -144 -126 -228 -166 -49 -23 -52 -18 -20 29 12 19 67 106
121 194 54 88 113 183 131 210 17 28 58 93 90 145 32 52 73 118 91 145 83 130
434 697 434 701 0 2 -1112 4 -2470 4 l-2471 0 37 -57z m1956 -13 c6 -13 7 -13
7 0 1 13 32 15 218 15 208 -1 218 -2 222 -20 4 -20 4 -20 11 0 6 17 17 20 73
20 61 1 67 -1 68 -20 0 -19 1 -19 9 3 10 24 30 30 30 10 0 -9 3 -9 8 -3 8 13
420 14 440 2 6 -5 12 -5 12 0 0 4 393 8 874 8 580 0 872 -3 868 -10 -12 -22
-186 -302 -207 -335 -40 -61 -500 -799 -511 -821 -7 -11 -16 -25 -21 -30 -13
-13 -75 19 -66 34 17 29 159 257 188 302 101 157 495 796 495 804 0 4 -360 8
-810 7 -446 0 -810 3 -810 7 0 5 -5 5 -11 1 -16 -9 -189 -11 -189 -1 0 5 -5 5
-11 1 -16 -10 -239 -11 -239 -1 0 5 -5 5 -12 1 -10 -6 -394 -9 -423 -4 -5 1
-12 1 -15 0 -16 -6 -200 -4 -200 3 0 5 -5 5 -11 1 -6 -4 -404 -7 -885 -7 -629
0 -871 -3 -867 -11 4 -6 58 -94 121 -196 64 -102 131 -211 151 -243 20 -32 46
-73 57 -92 l22 -33 -23 -28 c-13 -16 -25 -27 -28 -24 -4 4 -48 74 -110 175 -7
11 -24 38 -38 60 -14 22 -29 47 -32 55 -4 8 -20 34 -35 57 -46 71 -202 323
-202 326 0 1 422 2 938 2 827 0 938 -1 944 -15z m2837 -702 c-33 -62 -359
-409 -359 -382 0 6 8 19 18 30 10 11 27 33 38 49 84 133 306 376 312 343 2 -9
-2 -27 -9 -40z m-4176 -23 c15 -25 27 -48 27 -52 0 -12 -84 9 -95 24 -10 13
-9 22 4 45 9 15 21 28 26 28 6 0 22 -20 38 -45z m37 -124 c0 -3 -5 -13 -10
-21 -9 -13 -12 -12 -25 4 -8 10 -12 22 -10 27 6 8 45 0 45 -10z m84 -73 c31
-53 146 -240 174 -281 l26 -39 -24 -19 c-14 -10 -28 -19 -32 -19 -3 0 -21 26
-39 58 -18 31 -35 59 -39 62 -3 3 -35 53 -71 111 l-66 106 19 26 c25 34 30 34
52 -5z m-64 -145 c24 -38 43 -81 44 -98 1 -22 6 -31 21 -33 12 -2 35 -28 57
-62 l37 -59 -30 -26 c-75 -63 -162 -97 -173 -68 -10 25 -7 78 9 128 10 36 11
52 3 62 -24 29 -72 9 -175 -75 -24 -19 -43 -32 -43 -28 0 11 198 326 205 326
1 0 22 -30 45 -67z m3337 -169 c3 -9 -7 -34 -26 -60 -17 -25 -31 -48 -31 -52
0 -4 -8 -17 -18 -30 -20 -26 -52 -21 -52 8 0 31 22 80 33 73 6 -3 7 -1 3 6 -9
13 48 71 70 71 8 0 17 -7 21 -16z m458 -34 c-27 -12 -43 -12 -25 0 8 5 22 9
30 9 10 0 8 -3 -5 -9z m-3493 -91 c-8 -22 -18 -39 -21 -39 -3 0 -16 18 -28 39
l-23 40 28 20 27 20 16 -21 c15 -19 15 -25 1 -59z m67 -80 c-34 -22 -48 -5
-28 33 11 20 11 20 26 -2 13 -19 13 -24 2 -31z m2831 -11 c12 -4 -25 -75 -77
-144 -13 -17 -23 -34 -23 -38 0 -3 -22 -40 -50 -82 -27 -41 -50 -78 -50 -80 0
-3 -19 -35 -43 -72 -24 -37 -53 -83 -65 -103 -19 -31 -26 -35 -62 -36 -22 0
-40 3 -40 8 0 10 90 153 109 176 6 7 11 16 11 21 0 5 17 33 38 63 20 30 46 71
56 89 48 86 113 179 121 173 4 -5 5 -3 1 4 -4 7 0 23 9 37 16 24 17 24 34 7
10 -10 24 -20 31 -23z m865 -5 c-26 -63 -64 -112 -90 -119 -50 -13 -54 21 -9
74 26 31 87 75 112 81 1 1 -5 -16 -13 -36z m-3635 -54 c0 -5 -9 -9 -20 -9 -15
0 -20 -7 -20 -27 l0 -27 -24 34 -23 35 31 11 c30 10 56 2 56 -17z m95 -149
c19 -30 44 -72 55 -93 12 -21 39 -64 61 -95 21 -31 39 -62 39 -69 0 -6 4 -13
8 -15 4 -1 17 -20 29 -40 l22 -37 -22 1 c-50 0 -66 10 -94 55 -17 27 -65 103
-107 171 -43 68 -78 132 -79 142 -1 10 -5 18 -10 17 -5 -1 -11 3 -13 8 -2 6
13 10 36 10 38 0 42 -3 75 -55z m245 -389 c0 -6 27 -53 60 -106 34 -53 58
-101 54 -107 -4 -6 -3 -8 3 -5 10 6 133 -181 133 -202 0 -6 4 -11 8 -11 5 0
15 -12 23 -27 8 -16 20 -34 27 -41 21 -23 13 -31 -28 -29 -39 2 -41 3 -104
107 -36 58 -70 110 -76 117 -5 7 -10 14 -10 17 0 3 -11 22 -25 42 -14 20 -22
41 -18 47 3 6 1 7 -5 3 -7 -4 -12 -3 -12 2 0 5 -22 43 -49 84 -81 124 -79 118
-26 118 25 0 45 -4 45 -9z m2032 -68 c-27 -43 -81 -129 -121 -191 -39 -63 -71
-118 -71 -122 0 -5 -10 -10 -22 -12 -16 -2 -22 -9 -21 -23 1 -17 -32 -91 -48
-105 -4 -4 -63 -98 -94 -152 -5 -10 -116 -186 -245 -393 -129 -206 -239 -383
-245 -392 -31 -56 -111 -178 -117 -181 -5 -2 -8 -8 -8 -12 0 -5 -10 -25 -22
-46 l-21 -36 -19 23 c-10 13 -22 31 -26 39 -7 15 -532 859 -613 986 -43 67
-46 74 -24 74 11 0 15 11 15 38 l0 37 30 -50 c16 -27 34 -57 40 -65 56 -83
100 -159 100 -177 0 -12 8 -24 18 -27 9 -4 41 -46 70 -94 56 -92 143 -232 214
-345 24 -38 52 -83 63 -102 77 -126 121 -195 125 -195 4 1 165 254 225 355 30
51 101 165 424 680 161 259 299 479 305 490 38 68 47 75 92 75 l44 0 -48 -77z"/>
<path d="M2665 4380 c3 -5 8 -10 11 -10 2 0 4 5 4 10 0 6 -5 10 -11 10 -5 0
-7 -4 -4 -10z"/>
<path d="M1215 3220 c3 -5 8 -10 11 -10 2 0 4 5 4 10 0 6 -5 10 -11 10 -5 0
-7 -4 -4 -10z"/>
<path d="M1632 2565 c4 -4 3 -14 -3 -22 -7 -8 -8 -13 -1 -13 15 0 23 28 9 36
-7 4 -9 4 -5 -1z"/>
<path d="M4552 2868 c-15 -15 3 -38 29 -38 14 0 19 7 19 25 0 27 -26 35 -48
13z"/>
<path d="M4657 2716 c-6 -15 11 -36 29 -36 14 0 27 28 18 41 -8 14 -41 11 -47
-5z"/>
<path d="M1442 2518 c-27 -27 5 -73 38 -53 20 12 4 65 -20 65 -3 0 -11 -5 -18
-12z"/>
<path d="M1524 2434 c-18 -14 -18 -15 4 -4 12 6 22 13 22 15 0 8 -5 6 -26 -11z"/>
<path d="M1490 2317 c0 -8 -7 -17 -15 -21 -19 -7 -19 -21 0 -40 35 -34 66 12
35 51 -13 17 -20 21 -20 10z"/>
<path d="M1558 2220 c-8 -54 15 -75 67 -61 30 9 31 80 1 85 -46 9 -64 2 -68
-24z"/>
<path d="M1266 2151 c-15 -16 -15 -19 2 -39 18 -21 20 -21 36 -4 21 24 20 39
-3 51 -14 8 -22 6 -35 -8z"/>
<path d="M1540 2139 c0 -5 5 -7 10 -4 6 3 10 8 10 11 0 2 -4 4 -10 4 -5 0 -10
-5 -10 -11z"/>
<path d="M3952 1998 c-16 -16 -15 -25 2 -31 21 -8 40 17 23 31 -10 9 -17 8
-25 0z"/>
<path d="M1480 1910 c0 -5 5 -10 11 -10 5 0 7 5 4 10 -3 6 -8 10 -11 10 -2 0
-4 -4 -4 -10z"/>
<path d="M1261 1341 c-13 -23 10 -47 34 -37 21 8 19 33 -5 46 -15 8 -21 6 -29
-9z"/>
<path d="M1608 1323 c-2 -10 -2 -28 0 -40 4 -19 11 -23 43 -23 38 0 38 0 36
38 -2 35 -4 37 -39 40 -28 2 -37 -1 -40 -15z"/>
</g>
</svg>
